<svg width="158" height="31" viewBox="0 0 158 31" fill="none" xmlns="http://www.w3.org/2000/svg">
<path fill-rule="evenodd" clip-rule="evenodd" d="M36.2405 0L41.8247 9.92745L40.2183 10.6159C39.4597 10.941 38.6658 11.3454 37.9096 11.8093C40.3904 13.7597 42.0001 16.7174 42.0001 20.0655C42.0001 26.0647 36.8701 30.7728 30.739 30.7728C24.6785 30.7728 19.5982 26.1744 19.4799 20.2735C19.0494 12.4041 23.6903 2.84754 35.0994 0.258925L36.2405 0ZM34.6691 3.60777C25.8 6.15147 22.2576 13.7898 22.615 20.127L22.6167 20.1578L22.6172 20.1886C22.6861 24.2281 26.2109 27.6345 30.739 27.6345C35.3133 27.6345 38.8618 24.16 38.8618 20.0655C38.8618 17.1634 37.0983 14.5923 34.4283 13.3206L32.2511 12.2837L34.081 10.7132C35.0933 9.84439 36.2598 9.09218 37.4112 8.48269L34.6691 3.60777Z" fill="black"/>
<path fill-rule="evenodd" clip-rule="evenodd" d="M16.7879 0L22.372 9.92745L20.7657 10.6159C20.0071 10.941 19.2132 11.3454 18.457 11.8093C20.9378 13.7597 22.5475 16.7174 22.5475 20.0655C22.5475 26.0647 17.4174 30.7728 11.2863 30.7728C5.22583 30.7728 0.145575 26.1744 0.0272871 20.2735C-0.403277 12.4041 4.2377 2.84754 15.6467 0.258925L16.7879 0ZM15.2165 3.60777C6.34737 6.15147 2.80496 13.7898 3.16234 20.127L3.16408 20.1578L3.1646 20.1886C3.23348 24.2281 6.7583 27.6345 11.2863 27.6345C15.8607 27.6345 19.4091 24.16 19.4091 20.0655C19.4091 17.1634 17.6457 14.5923 14.9756 13.3206L12.7985 12.2837L14.6284 10.7132C15.6406 9.84439 16.8072 9.09218 17.9586 8.48269L15.2165 3.60777Z" fill="black"/>
<path d="M74.6603 2H81.3291L70.0863 30.4562H63.2428L52 2H59.1926L66.9439 22.9494L74.6603 2Z" fill="black"/>
<path fill-rule="evenodd" clip-rule="evenodd" d="M105.301 19.8623C105.301 13.6903 99.9618 9.21729 92.5274 9.21729C85.093 9.21729 79.7534 13.6903 79.7534 19.8623C79.7534 26.0343 85.093 30.5073 92.5274 30.5073C99.9618 30.5073 105.301 26.0343 105.301 19.8623ZM92.5276 25.3977C96.0551 25.3977 98.9146 22.9195 98.9146 19.8623C98.9146 16.8052 96.0551 14.3269 92.5276 14.3269C89.0002 14.3269 86.1406 16.8052 86.1406 19.8623C86.1406 22.9195 89.0002 25.3977 92.5276 25.3977Z" fill="black"/>
<path fill-rule="evenodd" clip-rule="evenodd" d="M133.404 19.8838C133.404 13.7118 128.065 9.23877 120.63 9.23877C113.196 9.23877 107.856 13.7118 107.856 19.8838C107.856 26.0558 113.196 30.5288 120.63 30.5288C128.065 30.5288 133.404 26.0558 133.404 19.8838ZM120.631 25.4192C124.158 25.4192 127.018 22.9409 127.018 19.8838C127.018 16.8267 124.158 14.3484 120.631 14.3484C117.103 14.3484 114.244 16.8267 114.244 19.8838C114.244 22.9409 117.103 25.4192 120.631 25.4192Z" fill="black"/>
<path d="M141.74 26.6214L141.88 19.9874L150.644 11.6775H157.138L148.724 20.2318L145.895 22.5362L141.74 26.6214ZM137.236 30.4621V4.55469H142.683V30.4621H137.236ZM151.237 30.4621L144.883 22.5712L148.305 18.3464L157.837 30.4621H151.237Z" fill="black"/>
</svg>
